:SAMPLES-PER-SECOND 24
:FULLY-SPECIFIED
:DEGREES
536
root  -9.07165 39.6282 -27.6418 121.922 52.0967 116.095
RightUpLeg  -16.5161 1.46272 -30.3051
RightLeg  36.2365 -16.3045 -12.6893
RightFoot  -16.9363 -0.436796 -6.584
RightToes  -2.09809e-008 3.77894e-005 6.81332e-007
Spine  15.9322 -1.76812 -6.72469
Spine1  0.714558 -0.97418 -10.3518
HEad  -23.0993 36.1233 -18.7541
LeftShoulder1  5.65745 -11.1192 -32.6915
LeftArm  5.4302 18.123 -36.2304
LeftForeArm  174.74 -68.1338 -156.306
LeftHand  0.102622 -4.1485 -0.972137
RightShoulder  3.17799 5.77591 28.2983
RightArm  8.78021 -29.1506 21.8044
RightForeArm  129.906 78.8853 120.152
RightHand  -0.522176 7.99952 -4.8879
LeftUpLeg  -42.7553 7.04587 37.7691
LeftLeg  53.5366 6.19414 9.37677
LeftFoot  10.8959 3.27362 -16.8951
LeftToes  1.24773e-006 1.46318e-008 1.32523e-009
537
root  -8.72396 40.0277 -28.3619 123.688 54.8139 115.659
RightUpLeg  -16.8247 5.07393 -28.864
RightLeg  33.2675 -19.2679 -13.3329
RightFoot  -15.1138 -0.281288 -5.37369
RightToes  -2.09809e-008 3.77894e-005 6.81332e-007
Spine  11.8876 -1.36085 -5.07015
Spine1  1.9089 -0.396883 -8.04362
HEad  -23.2086 37.4587 -21.4198
LeftShoulder1  5.98566 -11.5066 -33.8765
LeftArm  5.9108 22.6027 -38.1966
LeftForeArm  177.274 -66.5826 -158.241
LeftHand  0.330295 -5.10481 -3.32767
RightShoulder  3.19019 5.73562 28.5866
RightArm  8.15588 -31.5916 21.4774
RightForeArm  139.613 77.5005 130.001
RightHand  -0.522386 8.24251 -4.81429
LeftUpLeg  -40.978 6.78851 30.8052
LeftLeg  57.2147 6.42631 11.1053
LeftFoot  9.86155 3.14446 -17.0079
LeftToes  1.24773e-006 1.46318e-008 1.32523e-009
538
root  -8.32881 40.5553 -29.1069 127.762 57.1967 118.108
RightUpLeg  -14.9588 6.16885 -26.9964
RightLeg  27.2464 -21.1005 -11.5834
RightFoot  -12.6675 -0.130386 -3.7768
RightToes  -2.09809e-008 3.77894e-005 6.81332e-007
Spine  8.85634 -1.81904 -1.77643
Spine1  1.9828 -0.689695 -7.10761
HEad  -22.6972 38.5691 -22.2185
LeftShoulder1  6.01706 -11.5542 -33.9573
LeftArm  7.82317 24.7036 -36.7306
LeftForeArm  178.951 -65.441 -159.51
LeftHand  0.495984 -5.7617 -4.83514
RightShoulder  3.28969 5.83542 29.3004
RightArm  7.83141 -33.6114 21.7053
RightForeArm  142.42 76.7281 133.728
RightHand  -0.527613 8.11941 -4.89719
LeftUpLeg  -39.3246 6.61677 22.3199
LeftLeg  56.8762 4.12755 7.24962
LeftFoot  8.42242 3.41039 -19.7015
LeftToes  1.24773e-006 1.46318e-008 1.32523e-009
539
root  -8.05343 40.7931 -29.8785 131.574 59.4861 120.498
RightUpLeg  -14.1716 6.94954 -25.3899
RightLeg  23.3714 -22.6182 -10.5125
RightFoot  -11.0398 -0.06597 -3.28174
RightToes  -2.09809e-008 3.77894e-005 6.81332e-007
Spine  7.6857 -1.83589 0.549759
Spine1  -0.240797 -1.118 -4.89661
HEad  -21.9147 39.8472 -21.9676
LeftShoulder1  5.89001 -11.4269 -33.4511
LeftArm  10.1697 25.9472 -34.6184
LeftForeArm  177.926 -64.8949 -159.888
LeftHand  0.419186 -5.28471 -4.24331
RightShoulder  3.33974 5.88439 29.6581
RightArm  8.62415 -34.9257 22.0815
RightForeArm  141.976 76.666 133.844
RightHand  -0.552604 7.71664 -5.24955
LeftUpLeg  -36.5454 10.441 12.865
LeftLeg  51.5522 -0.359574 -0.025168
LeftFoot  7.08588 4.19387 -25.7316
LeftToes  1.24773e-006 1.46318e-008 1.32523e-009
540
root  -7.88077 40.759 -30.5533 133.689 62.6926 120.884
RightUpLeg  -15.7667 7.86005 -23.7654
RightLeg  22.2459 -22.7038 -10.0398
RightFoot  -10.7772 -0.0595423 -2.72651
RightToes  -2.09809e-008 3.77894e-005 6.81332e-007
Spine  6.23949 -1.21893 2.75029
Spine1  -1.17828 -0.589045 -4.4356
HEad  -23.2579 40.7516 -22.8167
LeftShoulder1  5.82644 -11.3655 -33.188
LeftArm  10.9839 26.5322 -33.3425
LeftForeArm  175.869 -63.9211 -160.5
LeftHand  0.341271 -4.86713 -3.56383
RightShoulder  3.29705 5.85269 29.3152
RightArm  9.44913 -34.669 23.4584
RightForeArm  140.802 77.0005 132.324
RightHand  -0.564983 7.99475 -5.26054
LeftUpLeg  -32.986 16.6119 4.24102
LeftLeg  42.1534 -7.09011 -6.40777
LeftFoot  3.64166 4.38852 -32.7563
LeftToes  1.24773e-006 1.46318e-008 1.32523e-009
541
root  -7.76082 40.4846 -31.3006 136.816 66.2506 122.41
RightUpLeg  -18.5751 6.96222 -21.6472
RightLeg  23.3867 -20.3331 -9.54594
RightFoot  -11.712 -0.0833241 -1.38628
RightToes  -2.09809e-008 3.77894e-005 6.81332e-007
Spine  4.60904 -0.822661 5.59112
Spine1  -1.01326 -0.106902 -5.08727
HEad  -25.704 41.5734 -23.8452
LeftShoulder1  5.77832 -11.3125 -33.004
LeftArm  10.1267 26.7002 -33.5422
LeftForeArm  175.474 -62.7747 -161.373
LeftHand  0.316814 -4.74745 -3.33311
RightShoulder  3.30461 5.92235 29.1299
RightArm  10.1644 -32.8517 25.031
RightForeArm  138.183 77.5723 129.349
RightHand  -0.56996 8.47093 -5.14124
LeftUpLeg  -30.2281 19.6002 -2.01963
LeftLeg  32.4879 -12.9806 -8.46686
LeftFoot  1.35858 4.51864 -39.1327
LeftToes  1.24773e-006 1.46318e-008 1.32523e-009
542
root  -7.69632 39.9022 -32.0597 141.369 69.3309 126.594
RightUpLeg  -21.5393 4.5163 -19.0521
RightLeg  27.8304 -16.6932 -9.55195
RightFoot  -14.3303 -0.0910493 0.200812
RightToes  -2.09809e-008 3.77894e-005 6.81332e-007
Spine  4.01086 -0.473215 6.11356
Spine1  -0.812813 -0.0838339 -3.23438
HEad  -27.3517 42.3812 -23.325
LeftShoulder1  5.74402 -11.3104 -32.7805
LeftArm  8.82528 26.0031 -35.5326
LeftForeArm  175.712 -62.5183 -161.589
LeftHand  0.255229 -4.33712 -2.76523
RightShoulder  3.33819 6.01397 29.1449
RightArm  10.9678 -30.9165 25.8649
RightForeArm  138.883 77.5105 129.804
RightHand  -0.539168 8.51065 -4.87197
LeftUpLeg  -27.4524 16.4828 -4.80619
LeftLeg  26.2111 -11.3117 -5.71216
LeftFoot  1.36697 4.01385 -35.3497
LeftToes  1.24773e-006 1.46318e-008 1.32523e-009
543
root  -7.65317 39.1206 -32.7864 145.4 72.7024 131.763
RightUpLeg  -23.5918 2.75532 -16.1388
RightLeg  33.4026 -12.9904 -9.30096
RightFoot  -17.6669 -0.0404904 1.43124
RightToes  -2.09809e-008 3.77894e-005 6.81332e-007
Spine  4.84708 0.258831 5.14048
Spine1  -0.692726 0.292873 -0.45942
HEad  -28.4953 43.0487 -21.8562
LeftShoulder1  6.0261 -11.6711 -33.7099
LeftArm  7.81213 23.7442 -37.0565
LeftForeArm  174.309 -62.9298 -161.138
LeftHand  0.177261 -3.86713 -1.96136
RightShoulder  3.40269 6.07445 29.607
RightArm  11.7659 -29.4797 25.948
RightForeArm  143.05 76.6151 134.271
RightHand  -0.49591 8.58029 -4.49317
LeftUpLeg  -24.517 9.96841 -4.44842
LeftLeg  25.2266 -4.26301 -1.85241
LeftFoot  -2.21064 1.63633 -20.1463
LeftToes  1.24773e-006 1.46318e-008 1.32523e-009
544
root  -7.60675 38.3232 -33.3983 150.317 75.1758 138.077
RightUpLeg  -24.9399 1.44399 -13.8817
RightLeg  38.6362 -9.85446 -8.61089
RightFoot  -20.7482 0.0870206 2.75361
RightToes  -2.09809e-008 3.77894e-005 6.81332e-007
Spine  5.17203 0.790716 2.99051
Spine1  0.629916 0.327029 2.43279
HEad  -30.8085 43.7359 -21.201
LeftShoulder1  6.63797 -12.3265 -35.8894
LeftArm  7.29877 18.9402 -36.3839
LeftForeArm  171.89 -64.4068 -159.676
LeftHand  0.0514933 -3.60104 -0.415051
RightShoulder  3.61439 6.27571 31.0632
RightArm  11.7079 -27.3208 26.7507
RightForeArm  144.203 76.4159 135.216
RightHand  -0.521572 8.73714 -4.66003
LeftUpLeg  -23.5932 3.46834 -2.87475
LeftLeg  28.2706 3.46274 2.37714
LeftFoot  -9.15181 0.19363 -8.97852
LeftToes  1.24773e-006 1.46318e-008 1.32523e-009
545
root  -7.53753 37.7331 -33.7292 155.734 74.8497 144.081
RightUpLeg  -26.3073 -1.50471 -13.2208
RightLeg  43.4324 -7.33345 -7.66842
RightFoot  -22.9972 0.273977 4.21334
RightToes  -2.09809e-008 3.77894e-005 6.81332e-007
Spine  3.98784 1.07128 -3.06727
Spine1  2.89235 -0.663401 8.06751
HEad  -33.7926 43.6184 -21.7163
LeftShoulder1  7.3876 -13.1018 -38.3653
LeftArm  7.60598 12.5261 -34.4174
LeftForeArm  170.215 -67.4031 -156.558
LeftHand  -0.0924054 -3.27361 1.48324
RightShoulder  3.79895 6.42502 32.3794
RightArm  9.98245 -25.9208 29.2911
RightForeArm  145.673 76.9793 133.577
RightHand  -0.52014 8.69569 -4.65767
LeftUpLeg  -25.2618 0.593146 -1.91296
LeftLeg  32.9236 5.91977 4.44387
LeftFoot  -13.3191 -0.0798145 -8.72949
LeftToes  1.24773e-006 1.46318e-008 1.32523e-009
546
root  -7.35697 37.5964 -33.9183 160.796 74.0812 149.178
RightUpLeg  -27.3099 -5.28948 -12.8123
RightLeg  46.3754 -4.48218 -5.3254
RightFoot  -22.6146 0.319695 4.7659
RightToes  -2.09809e-008 3.77894e-005 6.81332e-007
Spine  2.75946 1.0678 -6.84299
Spine1  3.82825 -1.29384 10.9241
HEad  -35.1376 42.834 -22.0664
LeftShoulder1  7.5554 -13.2953 -38.8356
LeftArm  8.39817 9.12564 -33.6183
LeftForeArm  170.591 -69.1738 -154.569
LeftHand  -0.12209 -3.03412 1.91376
RightShoulder  3.91989 6.51293 33.2488
RightArm  8.47803 -27.5915 32.0731
RightForeArm  153.378 76.1948 137.924
RightHand  -0.385399 9.09916 -3.4714
LeftUpLeg  -26.4563 1.86586 -1.32535
LeftLeg  35.244 3.94867 3.35399
LeftFoot  -13.6607 -0.104781 -9.22385
LeftToes  1.24773e-006 1.46318e-008 1.32523e-009
547
root  -7.03696 37.9886 -34.0518 166.247 74.892 154.708
RightUpLeg  -26.8627 -6.82153 -12.1185
RightLeg  46.0026 -0.469177 -0.840245
RightFoot  -20.1212 0.398319 6.96
RightToes  -2.09809e-008 3.77894e-005 6.81332e-007
Spine  1.40142 0.907305 -5.21799
Spine1  4.26731 -0.928933 8.58319
HEad  -34.3472 42.3971 -22.6865
LeftShoulder1  7.15357 -12.8961 -37.5319
LeftArm  9.25136 10.4328 -34.0937
LeftForeArm  172.447 -67.6289 -156.606
LeftHand  -0.121991 -3.09604 1.90352
RightShoulder  3.94162 6.5551 33.3012
RightArm  9.58482 -30.5925 33.6666
RightForeArm  161.493 73.761 145.687
RightHand  -0.265934 10.1778 -2.38671
LeftUpLeg  -25.1303 2.67542 0.245061
LeftLeg  33.477 3.23634 2.66297
LeftFoot  -12.6372 -0.0187993 -8.33002
LeftToes  1.24773e-006 1.46318e-008 1.32523e-009
548
root  -6.6286 38.6878 -33.9528 170.815 75.7996 159.131
RightUpLeg  -25.0752 -5.56551 -12.2247
RightLeg  42.6715 2.87276 2.53932
RightFoot  -18.4813 0.59542 11.5596
RightToes  -2.09809e-008 3.77894e-005 6.81332e-007
Spine  -0.387713 1.05051 -4.29488
Spine1  4.62322 -0.42557 7.02087
HEad  -31.6427 42.3262 -23.2875
LeftShoulder1  6.92788 -12.6333 -36.8654
LeftArm  10.5819 13.9884 -34.0478
LeftForeArm  173.382 -64.7912 -159.514
LeftHand  -0.169968 -3.09827 2.56149
RightShoulder  3.82875 6.47552 32.4829
RightArm  12.3115 -32.9061 33.191
RightForeArm  166.124 71.4424 150.718
RightHand  -0.228524 10.855 -2.04579
LeftUpLeg  -22.7413 0.603837 2.41118
LeftLeg  29.1475 5.1494 3.44345
LeftFoot  -9.6953 0.216261 -10.5607
LeftToes  1.24773e-006 1.46318e-008 1.32523e-009
549
root  -6.17881 39.5376 -33.6283 174.853 76.03 162.633
RightUpLeg  -22.7709 -3.10968 -12.7174
RightLeg  36.8728 0.408121 0.109179
RightFoot  -15.6175 0.304657 11.0935
RightToes  -2.09809e-008 3.77894e-005 6.81332e-007
Spine  -2.95852 1.10317 -3.70917
Spine1  5.37446 -0.004873 5.44989
HEad  -28.1024 42.5374 -22.3445
LeftShoulder1  6.50168 -12.1694 -35.453
LeftArm  11.7945 17.704 -34.3403
LeftForeArm  174.36 -62.9393 -161.14
LeftHand  -0.134969 -3.13934 2.07171
RightShoulder  3.77998 6.46424 32.0346
RightArm  14.4362 -33.9318 31.76
RightForeArm  166.971 70.4957 152.277
RightHand  -0.133051 10.466 -1.38122
LeftUpLeg  -20.5512 -0.625065 4.38898
LeftLeg  23.9058 6.02943 3.26275
LeftFoot  -4.23857 0.848494 -13.231
LeftToes  1.24773e-006 1.46318e-008 1.32523e-009
550
root  -5.76353 40.3639 -33.2566 179.754 76.0153 167.219
RightUpLeg  -20.2767 -0.193987 -13.1156
RightLeg  30.2424 -9.29646 -5.98383
RightFoot  -8.46632 -0.098434 2.96103
RightToes  -2.09809e-008 3.77894e-005 6.81332e-007
Spine  -4.19854 1.29644 -1.31624
Spine1  4.76785 0.686427 2.95739
HEad  -24.338 42.7787 -20.7666
LeftShoulder1  6.15142 -11.7956 -34.2013
LeftArm  12.5282 21.1746 -33.9641
LeftForeArm  175.332 -61.5693 -162.241
LeftHand  -0.0337964 -3.28702 0.692537
RightShoulder  3.76426 6.46501 31.8728
RightArm  16.1482 -34.4604 30.3886
RightForeArm  163.937 70.4645 151.902
RightHand  -0.0691848 9.87353 -0.931528
LeftUpLeg  -18.3492 0.888894 6.32105
LeftLeg  18.6529 3.8951 1.81527
LeftFoot  1.28703 1.58895 -14.3751
LeftToes  1.24773e-006 1.46318e-008 1.32523e-009
